<?xml version="1.0" encoding="UTF-8"?><svg id="Layer_1" xmlns="http://www.w3.org/2000/svg" viewBox="0 0 141.032 141.029"><defs><style>.cls-1{fill:#f1f1f1;}.cls-2{fill:#f9f8f8;}.cls-3{fill:#fcfbfb;}.cls-4{fill:#022269;}.cls-5{fill:#fafafa;}.cls-6{fill:#c6102e;}.cls-7{fill:#0d0808;}.cls-8{fill:#042369;}.cls-9{fill:#eaca07;}.cls-10{fill:#c61330;}.cls-11{fill:#739f1c;}.cls-12{fill:#047833;}</style></defs><path class="cls-6" d="M7.549,38.807c2.35-4.607,5.104-8.95,8.451-12.904,2.34.01,4.681.004,7.02.041.583.009.841-.117.827-.764-.05-2.338-.051-4.677-.071-7.016.067-.408.317-.686.624-.946,2.768-2.35,5.638-4.558,8.761-6.423.025.427.072.853.073,1.28.006,4.225.037,8.45-.021,12.675-.014,1,.296,1.208,1.245,1.205,12.324-.032,24.647-.013,36.971-.034,1.309-.002,3.151.595,3.788-.269.655-.888.162-2.622.171-3.986-.002-4.77-.004-9.539-.006-14.309,0-.154,0-.308.001-.462,0-2.038,0-4.076,0-6.114.181-.909.877-.467,1.317-.429,7.422.646,14.625,2.291,21.415,5.365,23.009,10.417,37.24,28.012,41.789,52.861,6.761,36.931-17.613,72.863-54.393,80.827C47.742,147.584,10.578,124.063,1.82,86.419c-1.661-7.14-2.231-14.37-1.519-21.683.274-.005.548-.014.821-.015,6.535-.019,13.07-.037,19.606-.056.625.017,1.258-.026,1.872.065,1.067.159,1.277-.28,1.272-1.286-.043-7.703-.057-15.407.011-23.11.011-1.277-.386-1.504-1.556-1.493-4.925.045-9.851-.014-14.776-.035ZM36.379,64.667c6.292.016,12.584.041,18.876.046,3.165.003,6.33-.029,9.496-.045h10.554c-10.406-7.179-20.569-14.19-30.731-21.201,1.907-.279,3.726-.25,5.544-.294.745-.018,1.34.187,1.95.61,7.392,5.123,14.798,10.225,22.209,15.321.332.228.604.629,1.107.561v-2.233c0-4.754-.002-9.508-.003-14.263.016-1.055-.026-2.114.066-3.162.083-.94-.248-1.162-1.166-1.16-13.297.03-26.595.03-39.892.002-.9-.002-1.182.195-1.177,1.149.044,7.274.024,14.548.024,21.822q0,3.059,3.143,2.847ZM106.049,56.681c-6.889,0-13.779.023-20.667-.025-1.031-.007-1.314.251-1.308,1.291.047,8.689.039,17.378.035,26.067-.001,2.786.587,5.457,1.737,7.966,4.033,8.802,10.879,14.742,19.447,18.9.584.283,1.026.113,1.538-.127,6.101-2.858,11.233-6.946,15.353-12.261,3.408-4.398,5.626-9.275,5.612-14.985-.02-8.493-.021-16.987.022-25.48.005-1.048-.227-1.383-1.335-1.374-6.81.054-13.622.027-20.433.028Z"/><path class="cls-3" d="M75.39,21.667c-.009,1.364.483,3.098-.171,3.986-.636.863-2.479.266-3.788.269-12.324.021-24.647.002-36.971.034-.949.002-1.259-.205-1.245-1.205.057-4.224.026-8.45.021-12.675,0-.427-.047-.853-.073-1.28.974-.867,2.215-1.301,3.278-2.022v10.957c.275-.179.432-.276.584-.381C45.954,13.19,54.882,7.029,63.811.869c.219-.151.493-.244.561-.549,1.278-.365,2.571-.404,3.877-.188-.311.233-.614.478-.933.699-9.653,6.662-19.309,13.319-28.957,19.987-.298.206-.713.308-.879.841,1.955,0,3.853-.023,5.751.013.664.013,1.193-.18,1.731-.553,5.718-3.965,11.444-7.919,17.179-11.86,4.249-2.92,8.515-5.817,12.774-8.724.157.083.313.165.47.248,0,2.038,0,4.076,0,6.114-.064.156-.128.313-.192.469-.306.236-.601.486-.918.705-6.236,4.309-12.476,8.612-18.707,12.927-.223.154-.624.189-.584.67h20.406Z"/><path class="cls-4" d="M20.728,64.666c-6.535.018-13.07.037-19.606.056-.274,0-.548.01-.821.015.16-2.13.222-4.274.92-6.326.361-.229.73-.446,1.082-.688,5.815-4.009,11.626-8.024,17.445-12.026.268-.184.489-.51.979-.449v19.419Z"/><path class="cls-5" d="M20.728,64.666v-19.419c-.491-.061-.711.265-.979.449-5.82,4.002-11.631,8.017-17.445,12.026-.352.243-.721.46-1.082.688-.032-.964.038-1.902.666-2.703,3.62-2.519,7.238-5.041,10.859-7.557,2.293-1.593,4.591-3.179,7.187-4.976-2.221,0-4.077.026-5.932-.013-.74-.015-1.343.174-1.954.599-2.818,1.963-5.666,3.884-8.503,5.82-.402-1.028.208-1.888.522-2.765.982-2.744,2.085-5.441,3.482-8.007,4.925.021,9.851.08,14.776.035,1.171-.011,1.568.217,1.556,1.493-.068,7.703-.053,15.407-.011,23.11.006,1.005-.205,1.444-1.272,1.286-.614-.091-1.247-.048-1.872-.065Z"/><path class="cls-8" d="M64.372.321c-.068.305-.342.398-.561.549-8.929,6.16-17.857,12.32-26.786,18.48-.152.105-.309.202-.584.381v-10.957c6.133-3.258,12.548-5.749,19.361-7.172,2.833-.592,5.691-1.004,8.57-1.28Z"/><path class="cls-10" d="M74.915.534c-4.258,2.907-8.524,5.804-12.774,8.724-5.735,3.941-11.461,7.895-17.179,11.86-.538.373-1.067.566-1.731.553-1.897-.036-3.796-.013-5.751-.013.167-.533.581-.635.879-.841,9.648-6.668,19.304-13.326,28.957-19.987.32-.221.623-.465.933-.699,2.013-.113,4.026-.067,6.037.037.221.011.704-.233.628.365Z"/><path class="cls-10" d="M3.545,49.58c2.837-1.936,5.685-3.857,8.503-5.82.611-.425,1.213-.615,1.954-.599,1.855.039,3.711.013,5.932.013-2.596,1.797-4.894,3.383-7.187,4.976-3.622,2.516-7.24,5.038-10.859,7.557-.185-.039-.263-.168-.221-.335.429-1.697.87-3.39,1.296-5.087.085-.338.398-.462.582-.704Z"/><path class="cls-3" d="M23.777,18.164c.02,2.339.021,4.678.071,7.016.014.647-.245.773-.827.764-2.34-.037-4.68-.031-7.02-.041,2.177-2.581,4.315-5.199,6.972-7.324.247-.197.462-.421.805-.414Z"/><path class="cls-2" d="M75.383,57.432v2.233c-.504.068-.775-.333-1.107-.561-7.411-5.096-14.817-10.198-22.209-15.321-.61-.423-1.205-.628-1.95-.61-1.817.044-3.636.014-5.544.294,10.163,7.011,20.326,14.022,30.731,21.201-3.717,0-7.135,0-10.554,0-.308-.236-.605-.487-.924-.707-8.62-5.949-17.243-11.895-25.865-17.841-.469-.324-.941-.644-1.583-1.083v19.629q-3.143.212-3.143-2.847c0-7.274.019-14.548-.024-21.822-.006-.953.277-1.15,1.177-1.149,13.297.028,26.595.028,39.892-.002.918-.002,1.248.22,1.166,1.16-.092,1.048-.05,2.108-.066,3.162-6.782,0-13.563,0-20.345,0,.701.769,1.405,1.259,2.112,1.744,6.078,4.173,12.157,8.346,18.236,12.519Z"/><path class="cls-4" d="M36.379,64.667v-19.629c.641.439,1.113.759,1.583,1.083,8.622,5.946,17.245,11.892,25.865,17.841.319.22.617.47.924.707-3.165.016-6.33.047-9.495.045-6.292-.005-12.584-.03-18.876-.046Z"/><path class="cls-7" d="M106.049,56.68c6.811,0,13.622.026,20.433-.028,1.108-.009,1.34.326,1.335,1.374-.043,8.493-.042,16.987-.022,25.48.013,5.71-2.204,10.587-5.612,14.985-4.12,5.315-9.252,9.403-15.353,12.261-.512.24-.954.41-1.538.127-8.569-4.158-15.414-10.097-19.447-18.9-1.149-2.508-1.738-5.18-1.737-7.966.004-8.689.012-17.378-.035-26.067-.006-1.04.277-1.299,1.308-1.291,6.889.049,13.778.025,20.667.025ZM84.883,63.993c.001,1.34.002,2.681.003,4.021-.018,1.948-.018,3.897-.064,5.844-.013.558.155.731.719.727,6.12-.035,12.24-.045,18.36-.063,1.357.001,2.713.003,4.07.004.625.016,1.249.046,1.874.046,5.401.003,10.801-.017,16.202.021.834.006,1.057-.234,1.025-1.046-.073-1.836-.049-3.676-.065-5.514.004-1.358.007-2.715.011-4.073.012-1.916.005-3.832.046-5.747.013-.587-.121-.816-.77-.812-6.101.035-12.202.035-18.303.045-1.365.003-2.729.006-4.094.008-6.121-.013-12.243-.019-18.364-.051-.585-.003-.718.204-.707.742.041,1.948.042,3.896.058,5.845ZM105.938,75.275c-6.613,0-13.225.025-19.838-.026-1.06-.008-1.324.304-1.293,1.321.073,2.384.024,4.773.026,7.159.003,3.645,1.027,7.025,2.797,10.17,4.045,7.186,10.049,12.27,17.316,15.986.753.385,1.352.327,2.081-.038,5.321-2.66,9.919-6.246,13.724-10.805,2.941-3.523,5.196-7.434,5.99-12.036.589-3.413.225-6.867.358-10.299.044-1.13-.303-1.466-1.442-1.457-6.573.05-13.147.025-19.72.025Z"/><path class="cls-8" d="M75.39,21.667h-20.406c-.04-.481.361-.516.584-.67,6.231-4.315,12.471-8.619,18.707-12.927.317-.219.612-.469.918-.705,0,0,.096.003.096.003l.095-.01c.002,4.77.004,9.539.006,14.309Z"/><path class="cls-4" d="M75.383,57.432c-6.079-4.173-12.157-8.345-18.236-12.519-.707-.485-1.411-.975-2.112-1.744,6.782,0,13.563,0,20.345,0,0,4.754.002,9.508.003,14.263Z"/><path class="cls-1" d="M75.383,7.358l-.095.01s-.096-.003-.096-.003c.064-.156.128-.313.192-.469,0,.154,0,.308-.001.462Z"/><path class="cls-12" d="M105.938,75.275c6.573,0,13.147.026,19.72-.025,1.139-.009,1.486.327,1.442,1.457-.133,3.433.231,6.886-.358,10.299-.795,4.602-3.05,8.513-5.99,12.036-3.805,4.559-8.403,8.145-13.724,10.805-.73.365-1.329.423-2.081.038-7.267-3.716-13.271-8.8-17.316-15.986-1.77-3.144-2.794-6.524-2.797-10.17-.002-2.387.047-4.775-.026-7.159-.031-1.017.233-1.329,1.293-1.321,6.612.051,13.225.026,19.838.026ZM87.237,89.287c.986.986,1.977,2.046,3.644,1.617.145-.037.312.003.467.018.22.022.451.192.284.357-.571.563.053,1.05.027,1.566-.052,1.016.32.887,1.166.711,1.106-.229,1.462-.974,1.855-1.762.382-.764.628-.676,1.077-.04,2.5,3.551,5.537,6.579,9.063,9.111.468.336.644.7.631,1.268-.035,1.447-.016,2.896-.007,4.344.002.33-.096.734.462.758.632.028.544-.414.546-.793.005-1.37.043-2.741-.013-4.108-.029-.705.2-1.153.771-1.56,3.438-2.453,6.357-5.431,8.849-8.836.191-.261.29-.638.764-.728.234.397.562.77.686,1.201.3,1.04,1.298.922,1.99,1.304.129.071.421.115.425.103.284-.876.817-1.736.246-2.691-.016-.027.006-.076.021-.205.805,0,1.697.208,2.416-.056.77-.283,1.39-.995,2.042-1.558.127-.109-.127-.242-.236-.332-.946-.777-1.813-1.716-3.256-1.337-.297.078-.684.124-1.086-.151.264-.475.44-1.026.802-1.395,1.011-1.033.074-2.086.116-3.121.011-.27-.275-.266-.442-.175-.962.518-2.305.458-2.685,1.877-.106.397-.328.866-.828,1.161-.42-.721-.74-1.506-1.268-2.11-.588-.674-1.604-.599-2.371-1.004-.06.127-.156.25-.175.383-.179,1.242-.609,2.511.504,3.594.208.202.505.504.311.958-1.248-.284-1.514.971-2.266,1.333.885,1.646,2.387,1.622,4.092,1.495-2.641,3.828-5.674,6.885-9.408,9.653,0-.681,0-1.059,0-1.438,0-3.561,0-7.122,0-10.684,0-1.93.053-2.011,1.673-.965.918.593,1.593-.234,2.398-.094.242.042.227-.295.13-.449-.439-.701-.153-1.801-1.436-2.139.89-.524,1.615-.892,2.274-1.354.792-.556.49-1.627.985-2.349.081-.118-.168-.199-.325-.222-1.195-.174-2.408-.622-3.479.421-.247.241-.577.55-1.14.376.368-1.783-.031-3.335-1.571-4.361-1.766.988-1.843,2.696-1.616,4.672-.937-.54-1.61-.924-2.278-1.314-.926-.54-1.678.492-2.578.291-.104-.023-.119.252-.044.398.519,1.009.517,2.372,1.98,2.736.366.091.787.3,1.061.776-1.26.418-.835,1.653-1.465,2.53,1.279.019,2.359.678,3.404-.317.768-.733,1.035-.345,1.026.615-.038,3.952-.012,7.905-.021,11.857,0,.249.13.551-.253.799-3.501-2.595-6.54-5.652-9.211-9.606,1.96.534,3.237-.016,4.27-1.419-.961-.24-1.212-1.608-2.629-1.272.534-.95,1.181-1.682,1.341-2.509.146-.754-.236-1.61-.359-2.277-2.232-.175-2.97,1.437-3.828,3.25-.826-1.839-1.664-3.383-3.69-3.281-1.213,1.73-.194,3.218.952,4.913-2.085-.305-3.726-.109-4.787,1.567Z"/><path class="cls-10" d="M103.896,57.457c1.365-.003,2.729-.006,4.095-.009-.006,1.873.011,3.747-.033,5.62-.016.693.167.937.91.933,6.05-.037,12.1-.031,18.151-.039-.004,1.358-.007,2.715-.011,4.073-6.024-.005-12.048.003-18.072-.033-.795-.005-.998.259-.979,1.01.046,1.837.015,3.676.015,5.515-1.357-.001-2.713-.003-4.07-.004,0-1.759-.055-3.521.02-5.277.04-.951-.199-1.26-1.207-1.252-5.942.048-11.885.021-17.827.019-.001-1.34-.002-2.681-.003-4.022,5.966-.003,11.932-.028,17.898.016.945.007,1.173-.275,1.138-1.172-.069-1.791-.022-3.586-.024-5.38Z"/><path class="cls-3" d="M103.896,57.457c.001,1.794-.046,3.589.024,5.38.035.897-.193,1.179-1.138,1.172-5.966-.044-11.932-.019-17.898-.016-.016-1.948-.017-3.897-.058-5.844-.011-.539.122-.746.707-.742,6.121.032,12.243.038,18.364.051Z"/><path class="cls-3" d="M127.018,63.962c-6.05.007-12.101.001-18.151.039-.743.005-.926-.239-.91-.933.044-1.873.027-3.747.033-5.62,6.1-.01,12.202-.01,18.302-.045.649-.004.783.225.77.812-.041,1.915-.034,3.831-.046,5.747Z"/><path class="cls-3" d="M84.886,68.014c5.942.002,11.885.029,17.827-.019,1.009-.008,1.248.301,1.207,1.252-.074,1.756-.02,3.517-.02,5.277-6.12.017-12.24.028-18.36.063-.564.003-.732-.169-.719-.727.046-1.948.046-3.896.064-5.844Z"/><path class="cls-3" d="M107.971,74.527c0-1.838.031-3.678-.015-5.515-.019-.751.184-1.015.979-1.01,6.024.036,12.048.028,18.072.033.015,1.838-.008,3.678.065,5.514.032.812-.191,1.051-1.025,1.046-5.4-.038-10.801-.017-16.202-.021-.625,0-1.249-.03-1.874-.046Z"/><path class="cls-9" d="M87.237,89.287c1.061-1.677,2.702-1.872,4.787-1.567-1.146-1.695-2.165-3.183-.952-4.913,2.026-.102,2.865,1.442,3.69,3.281.859-1.813,1.596-3.425,3.828-3.25.123.667.505,1.523.359,2.277-.16.827-.807,1.559-1.341,2.509,1.417-.336,1.668,1.032,2.629,1.272-1.033,1.403-2.31,1.953-4.27,1.419,2.671,3.954,5.71,7.011,9.211,9.606.383-.248.252-.55.253-.799.008-3.953-.018-7.905.021-11.857.009-.96-.257-1.347-1.026-.615-1.044.996-2.125.336-3.404.317.63-.878.205-2.112,1.465-2.53-.274-.475-.694-.685-1.061-.776-1.463-.363-1.462-1.727-1.98-2.736-.075-.146-.06-.422.044-.398.9.202,1.653-.83,2.578-.291.669.39,1.341.774,2.278,1.314-.226-1.976-.15-3.684,1.616-4.672,1.54,1.026,1.939,2.578,1.571,4.361.563.174.893-.136,1.14-.376,1.071-1.042,2.283-.595,3.479-.421.157.023.406.104.325.222-.496.722-.194,1.793-.985,2.349-.659.463-1.384.83-2.274,1.354,1.283.338.997,1.437,1.436,2.139.096.154.112.491-.13.449-.805-.14-1.48.687-2.398.094-1.621-1.046-1.673-.965-1.673.965,0,3.561,0,7.122,0,10.684,0,.378,0,.757,0,1.438,3.734-2.769,6.767-5.825,9.408-9.653-1.705.127-3.207.151-4.092-1.495.752-.362,1.018-1.617,2.266-1.333.193-.454-.103-.756-.311-.958-1.114-1.082-.684-2.351-.504-3.594.019-.133.115-.256.175-.383.767.405,1.783.33,2.371,1.004.528.604.847,1.39,1.268,2.11.5-.295.722-.764.828-1.161.38-1.419,1.723-1.359,2.685-1.877.167-.09.453-.094.442.175-.042,1.035.896,2.087-.116,3.121-.362.369-.538.92-.802,1.395.402.275.788.229,1.086.151,1.443-.379,2.31.56,3.256,1.337.109.089.362.222.236.332-.652.563-1.272,1.275-2.042,1.558-.719.264-1.611.056-2.416.056-.015.129-.037.179-.021.205.571.954.038,1.815-.246,2.691-.004.012-.297-.032-.425-.103-.693-.382-1.69-.264-1.99-1.304-.124-.431-.452-.804-.686-1.201-.474.09-.573.467-.764.728-2.492,3.405-5.411,6.383-8.849,8.836-.571.407-.8.855-.771,1.56.056,1.367.018,2.739.013,4.108-.002.38.086.821-.546.793-.558-.025-.46-.428-.462-.758-.009-1.448-.029-2.896.007-4.344.014-.568-.163-.932-.631-1.268-3.525-2.532-6.563-5.56-9.063-9.111-.448-.637-.695-.725-1.077.04-.394.788-.75,1.534-1.855,1.762-.846.175-1.218.304-1.166-.711.026-.516-.597-1.003-.027-1.566.167-.165-.064-.334-.284-.357-.156-.016-.322-.056-.467-.018-1.667.429-2.658-.631-3.644-1.617ZM113.626,85.199c.096.06.191.121.287.181.514.43,1.204.625,1.608,1.202.079.288.22.536.459.721.169.302.338.605.508.907.065.091.13.182.195.273-.079.722-.637.381-.976.394-1.06.042-2.123.016-3.186.016.003.146.006.291.009.436,1.103,0,2.207-.021,3.308.014.312.01.84-.27.868.408-.12.088-.224.232-.098.333.156.124.198-.089.273-.179,1.452-.954,2.972-.646,4.498-.243.095.06.191.12.286.18.154.083.308.165.462.248.129.115.246.285.443.101-.102-.084-.204-.168-.307-.25-.153-.079-.306-.157-.46-.234l-.252-.221c.638-.326,1.392.1,2.108-.287-.748-.3-1.485.096-2.13-.271.089-.067.178-.135.267-.202.269-.119.694-.045.684-.545-.348.021-.598.192-.828.402-.093.062-.186.125-.279.187-1.038.436-2.101.315-3.17.158-.314-.046-.508-.149-.459-.502.085-.15.17-.301.255-.452.085-.151.17-.301.255-.452.172-.219.461-.394.283-.768-.267.143-.373.372-.441.628-.089.149-.177.299-.266.448-.081.154-.162.308-.242.461-.219.601-.484.399-.757.043-.065-.09-.13-.181-.195-.271-.091-.344-.224-.664-.513-.894-.149-.243-.298-.486-.446-.729-.278-.772.106-1.648-.322-2.446-.365.333-.077.762-.261,1.014-.192.262-.21-.177-.365-.199-.111-.227-.116-.563-.515-.501-.023.296.187.461.348.652.091.562-.294.276-.512.289l-.267-.207c-.063-.038-.155-.125-.185-.107-.156.093-.058.183.03.263ZM118.346,91.283l.204.267c.081.152.162.304.243.455.112.229.113.568.516.519,0-.291-.17-.482-.358-.662-.088-.15-.177-.3-.265-.45-.062-.094-.124-.187-.187-.281-.086-.147-.173-.293-.259-.44-.103-.236-.095-.578-.521-.525-.005.296.191.472.365.658.088.153.175.306.263.458ZM95.319,87.853c-.09.151-.18.302-.27.453-.241.342-.48.317-.717-.004-.087-.152-.174-.304-.262-.455-.146-.444-.376-.84-.692-1.186-.35-.821.086-1.77-.295-2.593-.553.182.101.942-.625.937-.214-.514-.463-1.004-.944-1.337.126.57.374,1.07.758,1.502.11.657-.532-.049-.588.379.428.484,1.239.571,1.538,1.255.228.396.457.793.685,1.188.089.147.178.295.267.442-.05.133-.102.382-.148.381-1.157-.023-2.325.541-3.471-.05-.093-.061-.186-.123-.279-.184-.269-.188-.5-.486-.912-.344.162.349.472.407.771.481.082.075.165.151.247.226-.69.072-1.381.145-2.071.217.794.12,1.634.58,2.293.401,1.095-.298,2.153-.142,3.223-.21.45-.028.319.322.294.58-.286.159-.4.427-.464.728-.159.217-.478.374-.248.815.154-.257.279-.465.404-.672.148-.241.297-.483.445-.724.354-.761.681-.137,1.149.166-.352-.775-.092-.939.524-.944,1.16-.009,2.337.094,3.475-.301-1.108-.122-2.214-.102-3.318-.134-.318-.009-.845.267-.869-.416.087-.147.173-.295.259-.443l.072-.273c-.077.039-.154.078-.231.117ZM100.359,81.077c-.047-.006-.093-.012-.14-.019.027.026.054.052.081.078.062.208.244.247.418.298.151.088.302.176.452.264.2.157.4.315.612.482-.355.238-.799-.083-1.138.375.732.143,1.489.484,1.911-.277.312-.562-.315-1.028-.617-1.495-.011-.016-.118.03-.177.046-.084.342.415.552.222.937-.236-.084-.453-.161-.67-.237-.152-.084-.303-.168-.455-.252-.129-.159-.297-.222-.499-.2ZM97.859,84.035c.121-.133.329-.338.162-.447-.222-.145-.274.135-.326.307-.087.149-.174.298-.261.447-.169.194-.338.389-.505.582-.352-.197.072-.78-.519-.893-.061.824-.119,1.608-.175,2.394-.239.183-.391.423-.459.716-.026.091-.052.182-.079.273.075-.043.15-.086.225-.129.149-.244.297-.488.446-.732.453-.771,1.504-.796,2.017-1.535-.42-.254-.665.4-1.051.114.09-.229.173-.44.256-.651.089-.149.179-.297.268-.446ZM110.024,81.657c-.041-.042-.083-.084-.125-.124-.054-.323-.201-.425-.41-.122-.217.314-.386.662-.575.996-.7.4-1.399.8-2.099,1.199-.436.131-.659.008-.649-.486.024-1.152-.191-2.339.55-3.373.17-.24.446-.451.287-.846-.339.181-.356.468-.454.708-.264.259-.35.171-.388-.165-.055-.492.152-1.041-.246-1.592-.293.604-.146,1.112-.171,1.603-.018.353-.126.41-.387.17-.116-.25-.076-.62-.5-.656-.131.386.141.572.34.791.789,1.243.514,2.608.505,4.018-1.024-.293-1.772-1.1-2.812-1.167.568.425,1.145.833,1.782,1.102.894.377.682.687.029,1.057-.104.084-.207.168-.311.252.19.178.321.039.455-.084.544-.402,1.257.52,1.757-.226.166.142.422.421.547.228.168-.26-.215-.3-.393-.405-.588-.435.021-.542.209-.764.706-.391,1.411-.782,2.117-1.172h2.22c-.391-.489-.858-.156-1.167-.45.369-.255.712-.493,1.055-.732.163-.059.454-.139.345-.304-.176-.268-.333.051-.491.145-.34.133-.68.266-1.019.398ZM120.435,85.244c-1.323.746-1.268-.49-1.701-1.131v2.43c.683-.423,1.265-.785,1.848-1.147.034-.074.067-.148.101-.222-.083.023-.165.047-.248.07ZM119.692,93.128c-.036-.065-.056-.152-.11-.191-.126-.089-.197-.015-.184.115.006.058.072.135.128.156.039.015.109-.05.166-.081ZM91.384,85.233c-.06-.035-.117-.077-.18-.101-.014-.005-.052.049-.078.076.059.035.117.076.18.101.014.005.051-.049.079-.075Z"/><path class="cls-11" d="M106.965,83.771c-.188.222-.797.329-.209.764-.052.059-.103.118-.155.177-.499.746-1.213-.176-1.756.225-.049-.056-.097-.112-.144-.169.654-.369.866-.679-.028-1.056-.637-.268-1.214-.677-1.782-1.102,1.041.067,1.788.875,2.812,1.167.009-1.41.284-2.775-.505-4.018.052-.047.106-.092.161-.136.26.241.368.183.386-.17.025-.491-.122-.999.171-1.603.399.551.191,1.1.246,1.592.037.336.124.424.388.165.055.047.111.093.167.138-.741,1.034-.526,2.221-.55,3.373-.01.494.213.617.649.486.05.055.1.11.15.165Z"/><path class="cls-11" d="M90.555,88.765c1.146.592,2.314.028,3.471.051.047,0,.099-.249.149-.382.053-.044.106-.088.159-.133.236.322.475.347.717.006.057.049.114.097.17.146.024.682.551.406.869.415,1.104.032,2.21.012,3.318.134-1.138.395-2.315.291-3.475.301-.617.005-.877.169-.524.944-.468-.303-.795-.927-1.149-.166-.045-.05-.092-.099-.139-.147.026-.258.158-.608-.292-.579-1.07.068-2.128-.088-3.223.21-.659.179-1.5-.281-2.293-.401.69-.072,1.381-.145,2.071-.217.058-.06.116-.12.174-.18Z"/><path class="cls-11" d="M117.744,88.427c-.049.353.144.456.459.502,1.069.157,2.132.278,3.17-.158.052.054.104.106.156.158.645.367,1.382-.03,2.13.27-.717.388-1.471-.039-2.109.288-.058.059-.115.118-.173.176-1.525-.404-3.045-.712-4.497.242-.058-.052-.116-.104-.175-.154-.028-.678-.555-.398-.868-.408-1.102-.035-2.205-.014-3.308-.014-.003-.146-.006-.291-.009-.436,1.062,0,2.125.027,3.186-.016.339-.014.897.328.976-.394.05-.05.099-.099.149-.149.273.356.537.558.757-.042.051.047.102.092.156.134Z"/><path class="cls-11" d="M96.234,86.424c.058-.785.116-1.569.176-2.393.59.113.167.696.519.893.168-.193.337-.388.506-.582.053.046.105.092.157.14-.083.211-.166.421-.257.65.386.285.631-.369,1.051-.114-.513.74-1.564.764-2.017,1.535-.044-.044-.089-.087-.135-.129Z"/><path class="cls-11" d="M93.221,86.804c-.298-.684-1.11-.772-1.537-1.256.056-.427.698.279.588-.379.062-.055.125-.11.187-.166.725.006.071-.753.625-.935.381.823-.055,1.771.295,2.593-.053.047-.106.094-.157.143Z"/><path class="cls-11" d="M120.582,85.396c-.583.361-1.166.723-1.848,1.146v-2.43c.433.642.379,1.877,1.701,1.131.047.053.096.104.147.152Z"/><path class="cls-11" d="M108.913,82.406c.19-.333.359-.681.576-.995.209-.303.356-.201.411.122-.034.051-.11.127-.097.149.079.13.153.043.222-.025.34-.133.68-.266,1.019-.398.049.053.098.106.147.159-.343.238-.687.476-1.055.731.309.294.777-.039,1.167.45h-2.22l-.169-.193Z"/><path class="cls-11" d="M114.728,84.81c.155.022.173.461.365.199.184-.252-.104-.681.261-1.014.428.798.044,1.674.322,2.446-.051.048-.104.095-.157.142-.404-.577-1.094-.773-1.607-1.203.046-.043.091-.087.136-.131.218-.011.603.275.512-.287.056-.051.112-.101.168-.152Z"/><path class="cls-11" d="M101.314,81.529c.217.077.434.154.67.238.193-.385-.305-.595-.223-.937.061-.017.168-.063.179-.046.302.467.929.932.617,1.495-.423.762-1.179.42-1.911.277.339-.459.783-.138,1.138-.375-.212-.167-.412-.325-.612-.482.048-.057.095-.113.143-.169Z"/><path class="cls-11" d="M109.082,82.598c-.706.391-1.411.782-2.117,1.173-.049-.055-.099-.109-.15-.165.699-.4,1.399-.8,2.098-1.2.056.064.112.128.169.192Z"/><path class="cls-11" d="M92.272,85.17c-.384-.431-.632-.932-.758-1.502.481.333.73.823.945,1.336-.062.055-.124.11-.187.165Z"/><path class="cls-11" d="M93.378,86.662c.316.345.546.741.692,1.186-.054.049-.109.098-.164.145-.228-.396-.457-.793-.685-1.189.051-.048.104-.096.157-.142Z"/><path class="cls-11" d="M105.198,79.761c-.199-.219-.472-.405-.34-.791.424.035.384.406.5.655-.054.044-.108.089-.16.136Z"/><path class="cls-11" d="M106.55,79.609c.097-.24.114-.527.454-.708.158.395-.118.606-.287.846-.056-.046-.111-.092-.166-.138Z"/><path class="cls-11" d="M94.258,90.08c-.148.241-.297.483-.445.724-.052-.048-.105-.096-.157-.144.065-.3.179-.568.464-.727.046.048.093.097.138.147Z"/><path class="cls-11" d="M116.123,87.17c.289.231.421.551.511.895-.051.047-.1.096-.148.146-.169-.302-.338-.605-.507-.908.047-.045.095-.09.143-.133Z"/><path class="cls-11" d="M90.133,88.721c-.298-.076-.608-.133-.77-.483.412-.142.643.156.912.344-.047.046-.095.092-.142.139Z"/><path class="cls-11" d="M121.652,88.584c.231-.21.481-.381.828-.402.01.501-.415.427-.684.545-.047-.049-.096-.096-.144-.143Z"/><path class="cls-11" d="M118.082,90.826c-.173-.188-.368-.364-.363-.659.425-.053.418.289.521.525-.051.046-.104.091-.157.134Z"/><path class="cls-11" d="M106.756,84.535c.177.104.561.145.393.405-.125.193-.381-.086-.547-.228.051-.059.103-.118.155-.177Z"/><path class="cls-11" d="M114.56,84.962c-.16-.191-.37-.356-.348-.652.399-.062.404.274.515.501-.056.05-.112.101-.168.152Z"/><path class="cls-11" d="M118.951,91.861c.188.181.357.371.358.663-.403.049-.404-.29-.516-.519.052-.048.105-.096.158-.144Z"/><path class="cls-11" d="M118.095,87.383c.069-.256.176-.484.442-.627.177.374-.111.55-.283.768-.053-.047-.106-.094-.159-.141Z"/><path class="cls-11" d="M93.813,90.804c-.125.208-.25.416-.404.672-.23-.441.089-.598.247-.816.052.048.104.095.157.143Z"/><path class="cls-11" d="M115.676,86.441c.149.243.298.486.447.729-.048.044-.095.088-.143.133-.24-.185-.381-.433-.46-.721.053-.046.105-.094.156-.142Z"/><path class="cls-11" d="M95.776,87.14c.069-.292.221-.532.459-.715.045.042.09.085.134.129-.148.244-.297.488-.446.732-.049-.049-.098-.098-.148-.146Z"/><path class="cls-11" d="M111.043,81.258c.158-.095.315-.413.491-.145.109.165-.182.245-.345.305-.048-.053-.097-.106-.146-.159Z"/><path class="cls-11" d="M97.695,83.896c.052-.172.104-.452.326-.307.166.109-.042.314-.162.447-.054-.048-.108-.094-.164-.14Z"/><path class="cls-11" d="M119.691,93.129c-.057.03-.126.095-.166.08-.056-.021-.122-.098-.128-.156-.013-.13.058-.204.184-.115.054.038.075.126.109.192Z"/><path class="cls-11" d="M100.36,81.076c.201-.021.369.042.498.201-.047.053-.093.106-.141.158-.173-.052-.355-.091-.417-.299l.06-.061Z"/><path class="cls-11" d="M101.171,81.699c-.151-.088-.302-.176-.453-.263.047-.052.094-.104.14-.158.152.084.303.168.455.252-.048.056-.095.113-.143.169Z"/><path class="cls-11" d="M104.845,84.938c-.134.123-.265.262-.455.084.104-.084.207-.168.311-.252.047.056.095.112.144.168Z"/><path class="cls-11" d="M117.999,87.976c-.085.15-.17.301-.255.451-.054-.042-.106-.086-.156-.134.08-.155.161-.309.243-.462.056.049.112.096.169.144Z"/><path class="cls-11" d="M95.48,88.01c-.087.147-.173.295-.26.442-.056-.049-.113-.097-.17-.146.09-.152.18-.303.27-.454.053.053.106.105.16.157Z"/><path class="cls-11" d="M94.07,87.848c.087.152.174.304.262.454-.052.044-.105.089-.158.133-.089-.147-.178-.295-.268-.442.055-.048.109-.096.163-.145Z"/><path class="cls-11" d="M118.254,87.524c-.085.151-.17.301-.255.452-.056-.047-.112-.095-.169-.144.088-.15.177-.299.265-.449.052.047.105.094.158.141Z"/><path class="cls-11" d="M118.793,92.005c-.081-.152-.162-.304-.243-.455.046-.045.092-.091.136-.138.088.15.177.3.265.45-.053.047-.106.095-.158.143Z"/><path class="cls-11" d="M118.239,90.691c.086.147.173.293.259.44-.051.051-.102.101-.153.152-.088-.153-.175-.306-.263-.458.053-.043.105-.088.157-.134Z"/><path class="cls-11" d="M122.264,89.941c.102.084.204.168.306.251-.197.184-.314.013-.443-.101.047-.049.092-.099.137-.15Z"/><path class="cls-11" d="M97.859,84.035c-.089.149-.179.297-.268.446-.051-.047-.103-.093-.156-.139.087-.149.174-.298.26-.447.055.045.11.092.164.14Z"/><path class="cls-11" d="M122.127,90.091c-.154-.083-.308-.165-.462-.248.048-.044.094-.089.139-.136.153.079.306.157.459.235-.044.05-.09.1-.136.149Z"/><path class="cls-11" d="M116.881,89.906c-.075.091-.117.303-.273.179-.126-.1-.022-.245.098-.333.059.05.117.102.175.154Z"/><path class="cls-11" d="M91.383,85.233c-.027.027-.064.081-.078.076-.064-.024-.121-.066-.18-.101.027-.027.064-.081.078-.076.064.024.121.066.18.101Z"/><path class="cls-11" d="M113.625,85.2c-.087-.081-.185-.171-.029-.264.03-.018.122.069.185.107-.052.052-.104.105-.156.157Z"/><path class="cls-11" d="M113.781,85.043c.089.069.178.138.267.206-.044.044-.089.087-.135.13-.096-.06-.191-.121-.287-.18.051-.052.103-.104.155-.157Z"/><path class="cls-11" d="M120.435,85.244c.083-.023.165-.047.248-.07-.034.074-.067.148-.101.222-.051-.048-.1-.099-.147-.152Z"/><path class="cls-11" d="M95.923,87.286c-.075.043-.15.086-.225.129.026-.091.052-.182.078-.274.049.048.098.096.147.145Z"/><path class="cls-11" d="M121.664,89.843c-.095-.06-.191-.12-.287-.18.057-.058.115-.117.173-.176.084.073.169.147.253.22-.045.046-.091.091-.139.135Z"/><path class="cls-11" d="M100.301,81.137c-.027-.026-.054-.052-.081-.078.047.006.093.012.141.018,0,0-.059.06-.059.06Z"/><path class="cls-11" d="M116.682,88.484c-.065-.091-.13-.182-.195-.273.047-.05.096-.099.148-.146.066.09.131.18.196.271-.049.049-.099.099-.149.149Z"/><path class="cls-11" d="M90.275,88.583c.093.061.186.123.28.183-.058.059-.116.119-.174.18-.083-.075-.165-.15-.248-.225.047-.046.094-.092.142-.138Z"/><path class="cls-11" d="M121.796,88.727c-.089.067-.178.135-.267.202-.052-.051-.104-.104-.156-.158.093-.063.186-.125.278-.188.049.047.097.095.144.143Z"/><path class="cls-11" d="M118.55,91.549c-.068-.089-.136-.178-.204-.266.05-.05.101-.101.152-.152.063.093.125.187.187.28-.044.047-.089.093-.136.138Z"/><path class="cls-11" d="M95.319,87.853c.077-.039.154-.078.231-.117-.024.091-.048.182-.071.273-.054-.051-.107-.104-.16-.157Z"/><path class="cls-9" d="M110.024,81.657c-.069.068-.142.155-.222.025-.013-.022.063-.098.097-.149.042.04.084.082.125.124Z"/></svg>