<?xml version="1.0" encoding="UTF-8"?><svg id="Layer_1" xmlns="http://www.w3.org/2000/svg" viewBox="0 0 258.05 154"><defs><style>.cls-1{fill:#cf142b;}.cls-2{stroke-width:2px;}.cls-2,.cls-3{stroke:#000;}.cls-2,.cls-4{fill:none;}.cls-3{fill:#007934;}.cls-5{fill:#f3cc00;}.cls-4{stroke:#007934;stroke-linecap:round;stroke-linejoin:round;stroke-width:2px;}.cls-6{fill:#fff;}.cls-7{fill:#00247d;}</style></defs><path class="cls-1" d="M.05,0h258v154H.05V0Z"/><path class="cls-7" d="M0,0h154v77H0V0Z"/><path class="cls-6" d="M17.218,77H0v-8.609L136.783,0h17.217v8.598L17.218,77Z"/><path class="cls-6" d="M0,8.609l136.783,68.391h17.217v-8.609L17.218,0H0v8.609Z"/><path class="cls-6" d="M0,25.667v25.666h154v-25.667H0Z"/><path class="cls-6" d="M64.167,77h25.667V0h-25.667v77Z"/><path class="cls-1" d="M0,30.8v15.4h154v-15.4H0Z"/><path class="cls-1" d="M154,71.261v5.739l-51.333-25.666h11.478l39.855,19.927Z"/><path class="cls-1" d="M91.189,25.667L142.522,0h11.478l-51.333,25.667h-11.478Z"/><path class="cls-1" d="M51.333,25.667h-11.478L0,5.74V0l51.333,25.667Z"/><path class="cls-1" d="M11.479,77H0l51.333-25.667h11.479l-51.333,25.667Z"/><path class="cls-3" d="M180.208,64.172l.009,12.814c.013,17.03,16.992,32.628,30.782,38.514,13.79-5.886,30.77-21.483,30.782-38.514l.009-12.809-61.583-.005Z"/><path class="cls-5" d="M235.745,86.392l2.395-1.672-2.399-1.677.393-.67-5.026-.004,2.508-4.343-.778.004-.262-2.914-2.655,1.23-.385-.675-2.506,4.343-2.517-4.35-.384.674-2.651-1.239-.25,2.91-.778-.006,2.518,4.349-2.2-.002.345.586-2.096,1.463,2.098,1.467-.343.586,4.397.004.04.023c-3.478,5.139-8.201,9.981-13.463,13.807l-.003-20.187,3.809,2.195-.004-.679,2.551-.222-1.083-2.315.59-.336-1.904-1.098,4.354-2.508-.676-.384,1.238-2.645-2.916-.253.005-.776-4.354,2.509v-5.015l-.671.392-1.684-2.393-1.684,2.392-.671-.392v5.015l-4.354-2.509.005.776-2.916.253,1.238,2.645-.676.384,4.354,2.508-1.904,1.098.59.336-1.083,2.315,2.551.222-.004.679,3.809-2.195-.003,20.149c-5.258-3.833-9.976-8.679-13.445-13.82l.022-.013,4.397-.004-.343-.585,2.098-1.467-2.096-1.463.345-.586-2.2.002,2.518-4.349-.778.006-.25-2.91-2.651,1.239-.384-.674-2.517,4.35-2.506-4.343-.385.675-2.655-1.23-.262,2.914-.778-.004,2.508,4.343-5.026.004.393.67-2.399,1.677,2.395,1.672-.394.67,5.025-.006-1.101,1.903.68-.005.218,2.546,2.32-1.084.336.59,2.202-3.806.04-.023c3.789,5.646,8.843,10.76,14.671,14.847v8.539s.748-.005.748-.005l.748.005-.002-8.503c5.833-4.08,10.892-9.19,14.688-14.832l.022.013,2.202,3.805.336-.59,2.32,1.084.218-2.546.68.005-1.101-1.903,5.026.006-.394-.67Z"/><path class="cls-4" d="M210.994,68.429v10.598"/><path class="cls-4" d="M216.917,80.74l-14.038-7.79"/><path class="cls-4" d="M205.049,80.75l14.072-7.822"/><path class="cls-4" d="M209.45,69.952l1.55,2.67,1.55-2.67"/><path class="cls-4" d="M203.426,74.961l3.088-.008-1.537-2.567"/><path class="cls-4" d="M218.574,74.939l-3.088-.008,1.537-2.567"/><path class="cls-4" d="M231.644,76.718l-5.297,9.178"/><path class="cls-4" d="M230.62,90.341l-8.262-13.766"/><path class="cls-4" d="M220.336,84.415l16.098.262"/><path class="cls-4" d="M229.545,77.265l.008,3.087,2.678-1.537"/><path class="cls-4" d="M221.825,78.591l2.677,1.537-.047-2.991"/><path class="cls-4" d="M234.955,86.146l-2.669-1.549,2.614-1.455"/><path class="cls-4" d="M190.356,76.678l5.299,9.178"/><path class="cls-4" d="M191.38,90.301l8.262-13.766"/><path class="cls-4" d="M201.664,84.375l-16.098.262"/><path class="cls-4" d="M192.455,77.225l-.008,3.087-2.678-1.537"/><path class="cls-4" d="M200.175,78.55l-2.677,1.537.047-2.991"/><path class="cls-4" d="M187.045,86.106l2.669-1.55-2.614-1.455"/><path class="cls-6" d="M180.205,38.504h61.595v25.685h-61.595v-25.685Z"/><path class="cls-1" d="M213.89,38.507h-5.775v25.679h5.775v-25.679Z"/><path class="cls-1" d="M241.8,48.459h-61.595v5.776h61.595v-5.776Z"/><path class="cls-2" d="M180.2,38.5h61.595v25.686h-61.595v-25.686Z"/><path class="cls-1" d="M69.3,0v77h15.4V0h-15.4Z"/></svg>