<?xml version="1.0" encoding="UTF-8"?><svg id="Layer_1" xmlns="http://www.w3.org/2000/svg" viewBox="0 0 169.552 206.162"><defs><style>.cls-1{fill:#36b85d;}</style></defs><path class="cls-1" d="M.052,66.173c-.002-10.325.005-20.65-.007-30.975-.003-2.208-.193-4.032,3.038-4.552C30.903,26.165,56.219,14.933,80.58,1.304c2.946-1.648,4.995-1.797,8.054-.084,24.348,13.637,49.657,24.881,77.469,29.402,2.638.429,3.28,1.591,3.237,3.919-.411,22.305,1.139,44.661-.75,66.911-2.604,30.677-16.264,55.942-39.803,75.684-12.779,10.718-26.957,19.496-41.369,27.862-1.426.828-2.61,1.787-4.511.629-21.473-13.082-43.431-25.541-59.255-45.882C8.2,139.881.553,117.237.08,92.152c-.163-8.657-.026-17.319-.028-25.979ZM127.307,81.772c-2.2-1.751-4.742-3.213-6.52-5.32-2.62-3.106-4.369-2.716-7.048.02-12.096,12.358-24.428,24.484-36.574,36.793-2.012,2.04-3.252,2.575-5.47.131-4.017-4.424-8.462-8.456-12.686-12.694-7.586-7.612-7.51-7.569-14.567.457-1.558,1.772-1.663,2.834.024,4.5,9.23,9.112,18.419,18.267,27.512,27.515,1.858,1.889,2.999,1.781,4.818-.053,15.922-16.049,31.932-32.012,47.912-48.003.685-.685,1.615-1.216,2.598-3.345Z"/></svg>