<?xml version="1.0" encoding="UTF-8"?><svg id="Layer_1" xmlns="http://www.w3.org/2000/svg" viewBox="0 0 25 23.912"><defs><style>.cls-1{fill:#36b85d;}</style></defs><path class="cls-1" d="M.543,7.065h3.261v16.304c0,.3.243.543.543.543h16.305c.3,0,.543-.243.543-.543V7.065h3.261c.301,0,.544-.243.544-.543V.543C25,.243,24.757,0,24.456,0H.543C.243,0,0,.243,0,.543v5.979c0,.3.243.543.543.543ZM20.108,22.826H4.891V3.804h1.087v15.218c0,.277.208.509.483.54.514.058,1.193.288,1.148,1.616-.005.147.05.29.153.396.102.106.243.166.391.166h8.696s.008,0,.011,0c.301,0,.544-.243.544-.543,0-.044-.005-.088-.015-.129-.019-.893.342-1.347,1.195-1.512.255-.05.44-.273.44-.533V3.804h1.087v19.022h-.001ZM7.065,3.804h10.869v14.799c-.953.321-1.512,1.03-1.617,2.049h-7.64c-.112-1.078-.677-1.806-1.612-2.076V3.804h0ZM1.087,1.087h22.826v4.892h-2.718v-2.174h.544c.3,0,.543-.243.543-.543s-.243-.543-.543-.543H3.261c-.3,0-.543.243-.543.543s.243.543.543.543h.543v2.174H1.087V1.087ZM13.832,13.19c0-.716-.597-1.299-1.332-1.299-1.335,0-2.42-1.07-2.42-2.386,0-1.131.804-2.076,1.877-2.32v-1.206c0-.3.243-.544.543-.544s.543.243.543.544v1.206c1.072.245,1.876,1.19,1.876,2.32,0,.301-.243.543-.543.543s-.544-.243-.544-.543c0-.716-.597-1.299-1.332-1.299s-1.333.583-1.333,1.299.598,1.299,1.333,1.299c1.334,0,2.419,1.07,2.419,2.386,0,1.131-.804,2.076-1.876,2.32v1.337c0,.3-.243.543-.543.543s-.543-.243-.543-.543v-1.337c-1.073-.245-1.877-1.19-1.877-2.32,0-.3.243-.543.543-.543s.544.243.544.543c0,.717.598,1.299,1.333,1.299.734,0,1.332-.583,1.332-1.299Z"/></svg>